<svg xmlns="http://www.w3.org/2000/svg" viewBox="0 0 512 512" role="img" aria-labelledby="title">
  <title>GO-OUEST 2026</title>
  <defs>
    <path id="top-arc" d="M 92 286 A 164 164 0 0 1 420 286" />
    <path id="bottom-arc" d="M 160 364 A 108 108 0 0 0 352 364" />
  </defs>

  <g fill="none" stroke="#000" stroke-linecap="round" stroke-linejoin="round">
    <circle cx="256" cy="278" r="122" stroke-width="12" />
    <path d="M 154 211 A 138 138 0 0 1 358 211" stroke-width="12" />

    <g transform="translate(0 2)" stroke-width="13">
      <ellipse cx="210" cy="250" rx="44" ry="62" transform="rotate(-28 210 250)" />
      <line x1="236" y1="302" x2="287" y2="352" />
      <ellipse cx="302" cy="250" rx="44" ry="62" transform="rotate(28 302 250)" />
      <line x1="276" y1="302" x2="225" y2="352" />
      <line x1="224" y1="353" x2="202" y2="375" />
      <line x1="288" y1="353" x2="310" y2="375" />
    </g>

    <g stroke-width="8">
      <circle cx="256" cy="214" r="16" />
      <path d="M 247 200 C 243 208 243 220 247 228" />
      <path d="M 265 200 C 269 208 269 220 265 228" />
    </g>
  </g>

  <g fill="#000" font-family="Arial Black, Arial, sans-serif" font-weight="900" text-anchor="middle">
    <text font-size="70" letter-spacing="1.5">
      <textPath href="#top-arc" startOffset="50%">GO-OUEST</textPath>
    </text>
    <text font-size="68">
      <textPath href="#bottom-arc" startOffset="50%">2026</textPath>
    </text>
  </g>
</svg>
